<svg width="53" height="58" viewBox="0 0 53 58" fill="none" xmlns="http://www.w3.org/2000/svg">
<path d="M43.2919 8.4975L36.3344 13.8325L38.8369 22.2475L31.6044 17.27L24.3719 22.2475L26.8744 13.8325L19.9169 8.4975L28.6894 8.25L31.6044 0L34.5194 8.25L43.2919 8.4975ZM52.9169 27.5L48.4069 30.9375L50.0294 36.3825L45.3544 33.165L40.6794 36.3825L42.3019 30.9375L37.7919 27.5L43.4569 27.3625L45.3544 22L47.2519 27.3625L52.9169 27.5ZM46.6469 41.1125C48.9294 40.8925 51.3769 44.1375 49.9194 46.2C49.0394 47.4375 48.1044 48.5925 46.9494 49.6925C36.1969 60.5 18.7894 60.5 8.06438 49.6925C-2.68813 38.9675 -2.68813 21.5325 8.06438 10.8075C9.16438 9.7075 10.3194 8.7175 11.5569 7.8375C13.6194 6.38 16.8644 8.8275 16.6444 11.11C15.9019 18.975 18.5419 27.1425 24.5919 33.165C30.6144 39.215 38.7544 41.855 46.6469 41.1125ZM42.1369 46.6675C34.3544 46.2275 26.6544 43.01 20.6869 37.125C14.7194 31.1025 11.5294 23.375 11.0894 15.62C3.36187 24.255 3.66437 37.51 11.9419 45.815C20.2469 54.0925 33.5019 54.395 42.1369 46.6675Z" fill="white"/>
</svg>
