<svg width="124" height="14" viewBox="0 0 124 14" fill="none" xmlns="http://www.w3.org/2000/svg">
<path d="M6.44629 7.55355C6.44629 8.09861 6.31003 8.564 6.0375 8.94973C5.76917 9.33126 5.39182 9.62266 4.90547 9.82391C4.41911 10.0252 3.84681 10.1258 3.18855 10.1258C2.84056 10.1258 2.51143 10.109 2.20117 10.0755C1.89091 10.0419 1.60581 9.99371 1.34586 9.93082C1.08591 9.86793 0.857409 9.79036 0.660352 9.69812V8.67301C0.974805 8.80298 1.35844 8.92457 1.81125 9.03777C2.26406 9.14678 2.73784 9.20129 3.23258 9.20129C3.69378 9.20129 4.0837 9.14049 4.40234 9.01891C4.72099 8.89312 4.96207 8.71493 5.12559 8.48434C5.29329 8.24954 5.37715 7.96863 5.37715 7.6416C5.37715 7.32715 5.30797 7.0651 5.16961 6.85547C5.03125 6.64164 4.80065 6.44878 4.47781 6.27687C4.15917 6.10078 3.72313 5.91421 3.16969 5.71715C2.77977 5.57879 2.43596 5.42785 2.13828 5.26434C1.8406 5.09663 1.59113 4.90796 1.38988 4.69832C1.18863 4.48868 1.0356 4.24551 0.930781 3.96879C0.830156 3.69207 0.779844 3.37552 0.779844 3.01914C0.779844 2.52859 0.903529 2.10932 1.1509 1.76133C1.40246 1.40914 1.74836 1.14081 2.18859 0.956328C2.63302 0.767656 3.14243 0.67332 3.71684 0.67332C4.20738 0.67332 4.6602 0.71944 5.07527 0.81168C5.49454 0.903919 5.87818 1.0276 6.22617 1.18273L5.89285 2.10094C5.56163 1.96258 5.20944 1.84728 4.83629 1.75504C4.46733 1.6628 4.08579 1.61668 3.69168 1.61668C3.29757 1.61668 2.96424 1.67538 2.69172 1.79277C2.42339 1.90598 2.21794 2.0674 2.07539 2.27703C1.93284 2.48667 1.86156 2.73613 1.86156 3.02543C1.86156 3.34827 1.92865 3.6166 2.06281 3.83043C2.20117 4.04426 2.41919 4.23503 2.71688 4.40273C3.01875 4.56625 3.41706 4.73815 3.9118 4.91844C4.45266 5.11549 4.91176 5.32513 5.2891 5.54734C5.66645 5.76536 5.95365 6.0337 6.1507 6.35234C6.34776 6.6668 6.44629 7.0672 6.44629 7.55355ZM10.748 2.99398C11.5698 2.99398 12.1798 3.17846 12.5781 3.54742C12.9764 3.91638 13.1756 4.50546 13.1756 5.31465V10H12.4146L12.2134 8.98117H12.163C11.9702 9.23273 11.7689 9.44447 11.5593 9.61637C11.3497 9.78408 11.1065 9.91195 10.8298 10C10.5572 10.0839 10.2218 10.1258 9.82352 10.1258C9.40424 10.1258 9.03109 10.0524 8.70406 9.90566C8.38122 9.75892 8.12547 9.53671 7.9368 9.23902C7.75232 8.94134 7.66008 8.564 7.66008 8.10699C7.66008 7.41939 7.9326 6.89111 8.47766 6.52215C9.02271 6.15319 9.85286 5.95194 10.9681 5.9184L12.1568 5.86809V5.44672C12.1568 4.85135 12.0289 4.43418 11.7731 4.1952C11.5174 3.95621 11.1568 3.83672 10.6914 3.83672C10.3308 3.83672 9.98703 3.88913 9.66 3.99395C9.33297 4.09876 9.02271 4.22245 8.72922 4.365L8.40848 3.57258C8.71874 3.41326 9.07512 3.27699 9.47762 3.16379C9.88012 3.05059 10.3036 2.99398 10.748 2.99398ZM12.1442 6.60391L11.0939 6.64793C10.2344 6.68147 9.62855 6.82193 9.27637 7.0693C8.92418 7.31667 8.74809 7.66676 8.74809 8.11957C8.74809 8.51368 8.86758 8.80508 9.10656 8.99375C9.34555 9.18242 9.6621 9.27676 10.0562 9.27676C10.6683 9.27676 11.1694 9.10695 11.5593 8.76734C11.9492 8.42773 12.1442 7.91832 12.1442 7.2391V6.60391ZM18.5905 2.98141C19.408 2.98141 20.0265 3.18266 20.4457 3.58516C20.865 3.98346 21.0746 4.62495 21.0746 5.50961V10H20.0432V5.57879C20.0432 5.00439 19.9112 4.57464 19.647 4.28953C19.3871 4.00443 18.9867 3.86187 18.4458 3.86187C17.6827 3.86187 17.1461 4.0778 16.8358 4.50965C16.5256 4.9415 16.3704 5.56831 16.3704 6.39008V10H15.3264V3.10719H16.1692L16.3264 4.10086H16.383C16.5298 3.85768 16.7163 3.65434 16.9427 3.49082C17.1691 3.32311 17.4228 3.19733 17.7037 3.11348C17.9846 3.02543 18.2802 2.98141 18.5905 2.98141ZM34.0301 5.31465C34.0301 6.35025 33.8414 7.21604 33.4641 7.91203C33.0868 8.60383 32.5396 9.12582 31.8227 9.47801C31.1099 9.826 30.2441 10 29.2253 10H26.7285V0.805391H29.502C30.437 0.805391 31.242 0.977292 31.917 1.32109C32.592 1.6607 33.1119 2.16592 33.4767 2.83676C33.8456 3.5034 34.0301 4.32936 34.0301 5.31465ZM32.9044 5.35238C32.9044 4.52642 32.766 3.8451 32.4893 3.30844C32.2168 2.77177 31.8143 2.37346 31.2818 2.11352C30.7535 1.84937 30.1057 1.7173 29.3385 1.7173H27.7977V9.0818H29.0995C30.3657 9.0818 31.3153 8.76944 31.9484 8.14473C32.5857 7.52001 32.9044 6.58923 32.9044 5.35238ZM36.9608 3.10719V10H35.9168V3.10719H36.9608ZM36.4514 0.528672C36.6233 0.528672 36.7701 0.585273 36.8916 0.698476C37.0174 0.807487 37.0803 0.979388 37.0803 1.21418C37.0803 1.44478 37.0174 1.61668 36.8916 1.72988C36.7701 1.84309 36.6233 1.89969 36.4514 1.89969C36.2711 1.89969 36.1202 1.84309 35.9986 1.72988C35.8812 1.61668 35.8225 1.44478 35.8225 1.21418C35.8225 0.979388 35.8812 0.807487 35.9986 0.698476C36.1202 0.585273 36.2711 0.528672 36.4514 0.528672ZM41.8286 2.98141C42.4155 2.98141 42.9187 3.11138 43.3379 3.37133C43.7572 3.63128 44.0779 3.99604 44.3002 4.46562C44.5224 4.93102 44.6335 5.47607 44.6335 6.10078V6.74855H39.8727C39.8852 7.55775 40.0865 8.17408 40.4764 8.59754C40.8663 9.021 41.4156 9.23273 42.1241 9.23273C42.5602 9.23273 42.9459 9.1929 43.2813 9.11324C43.6167 9.03358 43.9647 8.91618 44.3253 8.76105V9.67926C43.9773 9.83439 43.6314 9.94759 43.2876 10.0189C42.948 10.0901 42.5455 10.1258 42.0801 10.1258C41.4177 10.1258 40.8391 9.99161 40.3443 9.72328C39.8538 9.45076 39.4723 9.05245 39.1997 8.52836C38.9272 8.00427 38.7909 7.36279 38.7909 6.60391C38.7909 5.8618 38.9146 5.22031 39.162 4.67945C39.4136 4.1344 39.7657 3.71513 40.2186 3.42164C40.6756 3.12815 41.2122 2.98141 41.8286 2.98141ZM41.816 3.83672C41.2583 3.83672 40.8139 4.0191 40.4827 4.38387C40.1515 4.74863 39.9544 5.25805 39.8915 5.91211H43.5392C43.535 5.50122 43.47 5.14065 43.3442 4.83039C43.2226 4.51594 43.0361 4.27276 42.7845 4.10086C42.5329 3.92477 42.2101 3.83672 41.816 3.83672ZM48.3314 13.0942C47.4258 13.0942 46.7277 12.9244 46.2372 12.5848C45.7466 12.2494 45.5014 11.7777 45.5014 11.1698C45.5014 10.7379 45.6376 10.369 45.9102 10.0629C46.1869 9.75682 46.5684 9.55348 47.0548 9.45285C46.8745 9.369 46.7194 9.24322 46.5894 9.07551C46.4636 8.9078 46.4007 8.71493 46.4007 8.49691C46.4007 8.24535 46.4699 8.02523 46.6082 7.83656C46.7508 7.6437 46.9667 7.45922 47.256 7.28312C46.8954 7.13638 46.602 6.88901 46.3755 6.54102C46.1533 6.18883 46.0422 5.78004 46.0422 5.31465C46.0422 4.81991 46.1449 4.39854 46.3504 4.05055C46.5558 3.69836 46.8535 3.43003 47.2434 3.24555C47.6334 3.06107 48.105 2.96883 48.6585 2.96883C48.7801 2.96883 48.9017 2.97512 49.0232 2.9877C49.149 2.99608 49.2685 3.01076 49.3817 3.03172C49.4949 3.04849 49.5935 3.06945 49.6773 3.09461H52.042V3.76754L50.7716 3.92477C50.8974 4.08828 51.0022 4.28534 51.0861 4.51594C51.1699 4.74654 51.2118 5.00229 51.2118 5.2832C51.2118 5.97081 50.9791 6.51796 50.5138 6.92465C50.0484 7.32715 49.409 7.5284 48.5956 7.5284C48.4027 7.5284 48.2057 7.51163 48.0044 7.47809C47.799 7.59129 47.6417 7.71707 47.5327 7.85543C47.4279 7.99379 47.3755 8.15311 47.3755 8.3334C47.3755 8.46757 47.4153 8.57448 47.495 8.65414C47.5789 8.7338 47.6983 8.7925 47.8535 8.83023C48.0086 8.86378 48.1952 8.88055 48.4132 8.88055H49.627C50.3775 8.88055 50.9519 9.03777 51.3502 9.35223C51.7527 9.66668 51.9539 10.1258 51.9539 10.7295C51.9539 11.4926 51.6437 12.0775 51.0232 12.4842C50.4026 12.8909 49.5054 13.0942 48.3314 13.0942ZM48.3629 12.2766C48.9331 12.2766 49.4048 12.2179 49.7779 12.1005C50.1553 11.9873 50.4362 11.8217 50.6207 11.6037C50.8093 11.3899 50.9037 11.1341 50.9037 10.8364C50.9037 10.5597 50.8408 10.3501 50.715 10.2075C50.5892 10.0692 50.4047 9.97694 50.1616 9.93082C49.9184 9.88051 49.6207 9.85535 49.2685 9.85535H48.0736C47.7633 9.85535 47.4929 9.90357 47.2623 10C47.0317 10.0964 46.8535 10.239 46.7277 10.4277C46.6061 10.6163 46.5454 10.8511 46.5454 11.132C46.5454 11.5052 46.7026 11.7882 47.017 11.9811C47.3315 12.1781 47.7801 12.2766 48.3629 12.2766ZM48.6333 6.76742C49.1323 6.76742 49.5075 6.64164 49.7591 6.39008C50.0106 6.13852 50.1364 5.77165 50.1364 5.28949C50.1364 4.77379 50.0085 4.38806 49.7528 4.1323C49.497 3.87236 49.1197 3.74238 48.6207 3.74238C48.1428 3.74238 47.7738 3.87655 47.5139 4.14488C47.2581 4.40902 47.1302 4.79685 47.1302 5.30836C47.1302 5.77794 47.2602 6.13852 47.5202 6.39008C47.7801 6.64164 48.1512 6.76742 48.6333 6.76742ZM59.3436 6.54102C59.3436 7.10703 59.2702 7.61225 59.1235 8.05668C58.9767 8.50111 58.765 8.87635 58.4883 9.18242C58.2116 9.48849 57.8761 9.72328 57.482 9.8868C57.0921 10.0461 56.6498 10.1258 56.155 10.1258C55.6938 10.1258 55.2704 10.0461 54.8846 9.8868C54.5031 9.72328 54.1719 9.48849 53.891 9.18242C53.6143 8.87635 53.3983 8.50111 53.2432 8.05668C53.0923 7.61225 53.0168 7.10703 53.0168 6.54102C53.0168 5.78633 53.1447 5.14484 53.4004 4.61656C53.6562 4.08409 54.0209 3.67949 54.4947 3.40277C54.9727 3.12186 55.5408 2.98141 56.1991 2.98141C56.828 2.98141 57.3772 3.12186 57.8468 3.40277C58.3206 3.68368 58.6874 4.09038 58.9474 4.62285C59.2115 5.15113 59.3436 5.79052 59.3436 6.54102ZM54.0985 6.54102C54.0985 7.09445 54.1719 7.57452 54.3186 7.98121C54.4654 8.3879 54.6918 8.70236 54.9979 8.92457C55.3039 9.14678 55.698 9.25789 56.1802 9.25789C56.6582 9.25789 57.0502 9.14678 57.3562 8.92457C57.6665 8.70236 57.895 8.3879 58.0418 7.98121C58.1885 7.57452 58.2619 7.09445 58.2619 6.54102C58.2619 5.99177 58.1885 5.51799 58.0418 5.11969C57.895 4.71719 57.6686 4.40693 57.3625 4.18891C57.0565 3.97089 56.6603 3.86187 56.1739 3.86187C55.457 3.86187 54.9308 4.09876 54.5954 4.57254C54.2641 5.04632 54.0985 5.70247 54.0985 6.54102ZM62.3435 8.5032L62.4252 8.64785C62.3498 8.95392 62.2533 9.28095 62.1359 9.62895C62.0227 9.97694 61.897 10.3249 61.7586 10.6729C61.6244 11.0251 61.4882 11.3542 61.3498 11.6603H60.57C60.658 11.3249 60.744 10.9706 60.8278 10.5975C60.9117 10.2285 60.9871 9.86374 61.0542 9.50316C61.1255 9.1384 61.1821 8.80508 61.224 8.5032H62.3435ZM71.9154 1.61668C71.4081 1.61668 70.9511 1.70473 70.5444 1.88082C70.1419 2.05272 69.7981 2.30428 69.513 2.63551C69.2321 2.96254 69.0162 3.35875 68.8652 3.82414C68.7143 4.28953 68.6388 4.81362 68.6388 5.39641C68.6388 6.16786 68.7583 6.8387 68.9973 7.40891C69.2405 7.97492 69.6011 8.41306 70.079 8.72332C70.5612 9.03358 71.1628 9.18871 71.884 9.18871C72.2949 9.18871 72.6806 9.15517 73.0412 9.08809C73.4059 9.01681 73.7602 8.92876 74.104 8.82395V9.75473C73.7686 9.88051 73.4164 9.97275 73.0475 10.0314C72.6785 10.0943 72.2404 10.1258 71.733 10.1258C70.7981 10.1258 70.0161 9.93292 69.3872 9.54719C68.7625 9.15727 68.2929 8.60802 67.9785 7.89945C67.6682 7.19089 67.5131 6.35444 67.5131 5.39012C67.5131 4.69413 67.6095 4.05893 67.8024 3.48453C67.9994 2.90594 68.2845 2.40701 68.6577 1.98773C69.035 1.56846 69.4962 1.24562 70.0413 1.01922C70.5905 0.78862 71.2194 0.67332 71.928 0.67332C72.3934 0.67332 72.842 0.71944 73.2739 0.81168C73.7057 0.903919 74.0956 1.03599 74.4436 1.20789L74.016 2.11352C73.7225 1.97935 73.3996 1.86405 73.0475 1.76762C72.6995 1.66699 72.3221 1.61668 71.9154 1.61668ZM78.5189 2.99398C79.3407 2.99398 79.9508 3.17846 80.3491 3.54742C80.7474 3.91638 80.9465 4.50546 80.9465 5.31465V10H80.1855L79.9843 8.98117H79.934C79.7411 9.23273 79.5399 9.44447 79.3302 9.61637C79.1206 9.78408 78.8774 9.91195 78.6007 10C78.3282 10.0839 77.9928 10.1258 77.5945 10.1258C77.1752 10.1258 76.802 10.0524 76.475 9.90566C76.1522 9.75892 75.8964 9.53671 75.7077 9.23902C75.5233 8.94134 75.431 8.564 75.431 8.10699C75.431 7.41939 75.7035 6.89111 76.2486 6.52215C76.7936 6.15319 77.6238 5.95194 78.7391 5.9184L79.9277 5.86809V5.44672C79.9277 4.85135 79.7998 4.43418 79.5441 4.1952C79.2883 3.95621 78.9277 3.83672 78.4623 3.83672C78.1018 3.83672 77.758 3.88913 77.4309 3.99395C77.1039 4.09876 76.7936 4.22245 76.5002 4.365L76.1794 3.57258C76.4897 3.41326 76.8461 3.27699 77.2486 3.16379C77.6511 3.05059 78.0745 2.99398 78.5189 2.99398ZM79.9151 6.60391L78.8648 6.64793C78.0053 6.68147 77.3995 6.82193 77.0473 7.0693C76.6951 7.31667 76.519 7.66676 76.519 8.11957C76.519 8.51368 76.6385 8.80508 76.8775 8.99375C77.1165 9.18242 77.433 9.27676 77.8271 9.27676C78.4393 9.27676 78.9403 9.10695 79.3302 8.76734C79.7202 8.42773 79.9151 7.91832 79.9151 7.2391V6.60391ZM84.1477 10H83.0974V0.214219H84.1477V10ZM87.3991 3.10719V10H86.3551V3.10719H87.3991ZM86.8897 0.528672C87.0616 0.528672 87.2083 0.585273 87.3299 0.698476C87.4557 0.807487 87.5186 0.979388 87.5186 1.21418C87.5186 1.44478 87.4557 1.61668 87.3299 1.72988C87.2083 1.84309 87.0616 1.89969 86.8897 1.89969C86.7094 1.89969 86.5585 1.84309 86.4369 1.72988C86.3195 1.61668 86.2608 1.44478 86.2608 1.21418C86.2608 0.979388 86.3195 0.807487 86.4369 0.698476C86.5585 0.585273 86.7094 0.528672 86.8897 0.528672ZM92.6819 3.92477H90.965V10H89.921V3.92477H88.7009V3.42164L89.921 3.07574V2.61664C89.921 2.03805 90.007 1.56846 90.1789 1.20789C90.3508 0.843125 90.6002 0.574792 90.9273 0.402891C91.2543 0.230989 91.6526 0.145039 92.1222 0.145039C92.3863 0.145039 92.6274 0.168099 92.8454 0.214219C93.0676 0.260338 93.2626 0.312747 93.4303 0.371445L93.1599 1.19531C93.0173 1.14919 92.8559 1.10727 92.6756 1.06953C92.4995 1.0276 92.3192 1.00664 92.1348 1.00664C91.7365 1.00664 91.4409 1.13661 91.248 1.39656C91.0593 1.65232 90.965 2.05482 90.965 2.60406V3.10719H92.6819V3.92477ZM99.8955 6.54102C99.8955 7.10703 99.8221 7.61225 99.6754 8.05668C99.5286 8.50111 99.3169 8.87635 99.0402 9.18242C98.7634 9.48849 98.428 9.72328 98.0339 9.8868C97.644 10.0461 97.2017 10.1258 96.7069 10.1258C96.2457 10.1258 95.8223 10.0461 95.4365 9.8868C95.055 9.72328 94.7238 9.48849 94.4429 9.18242C94.1661 8.87635 93.9502 8.50111 93.7951 8.05668C93.6441 7.61225 93.5687 7.10703 93.5687 6.54102C93.5687 5.78633 93.6966 5.14484 93.9523 4.61656C94.2081 4.08409 94.5728 3.67949 95.0466 3.40277C95.5246 3.12186 96.0927 2.98141 96.7509 2.98141C97.3798 2.98141 97.9291 3.12186 98.3987 3.40277C98.8725 3.68368 99.2393 4.09038 99.4993 4.62285C99.7634 5.15113 99.8955 5.79052 99.8955 6.54102ZM94.6504 6.54102C94.6504 7.09445 94.7238 7.57452 94.8705 7.98121C95.0173 8.3879 95.2437 8.70236 95.5497 8.92457C95.8558 9.14678 96.2499 9.25789 96.7321 9.25789C97.21 9.25789 97.6021 9.14678 97.9081 8.92457C98.2184 8.70236 98.4469 8.3879 98.5936 7.98121C98.7404 7.57452 98.8138 7.09445 98.8138 6.54102C98.8138 5.99177 98.7404 5.51799 98.5936 5.11969C98.4469 4.71719 98.2205 4.40693 97.9144 4.18891C97.6084 3.97089 97.2121 3.86187 96.7258 3.86187C96.0088 3.86187 95.4826 4.09876 95.1472 4.57254C94.816 5.04632 94.6504 5.70247 94.6504 6.54102ZM104.832 2.98141C104.971 2.98141 105.115 2.98979 105.266 3.00656C105.417 3.01914 105.551 3.03801 105.669 3.06316L105.537 4.03168C105.424 4.00233 105.298 3.97927 105.159 3.9625C105.021 3.94573 104.891 3.93734 104.769 3.93734C104.493 3.93734 104.231 3.99395 103.983 4.10715C103.74 4.21616 103.526 4.37548 103.342 4.58512C103.157 4.79056 103.013 5.04003 102.908 5.33352C102.803 5.62281 102.751 5.94565 102.751 6.30203V10H101.7V3.10719H102.568L102.682 4.37758H102.726C102.868 4.12182 103.04 3.88913 103.241 3.67949C103.443 3.46566 103.675 3.29586 103.939 3.17008C104.208 3.0443 104.505 2.98141 104.832 2.98141ZM110.235 2.98141C111.052 2.98141 111.671 3.18266 112.09 3.58516C112.509 3.98346 112.719 4.62495 112.719 5.50961V10H111.687V5.57879C111.687 5.00439 111.555 4.57464 111.291 4.28953C111.031 4.00443 110.631 3.86187 110.09 3.86187C109.327 3.86187 108.79 4.0778 108.48 4.50965C108.17 4.9415 108.015 5.56831 108.015 6.39008V10H106.971V3.10719H107.813L107.971 4.10086H108.027C108.174 3.85768 108.361 3.65434 108.587 3.49082C108.813 3.32311 109.067 3.19733 109.348 3.11348C109.629 3.02543 109.924 2.98141 110.235 2.98141ZM115.914 3.10719V10H114.87V3.10719H115.914ZM115.404 0.528672C115.576 0.528672 115.723 0.585273 115.845 0.698476C115.97 0.807487 116.033 0.979388 116.033 1.21418C116.033 1.44478 115.97 1.61668 115.845 1.72988C115.723 1.84309 115.576 1.89969 115.404 1.89969C115.224 1.89969 115.073 1.84309 114.951 1.72988C114.834 1.61668 114.775 1.44478 114.775 1.21418C114.775 0.979388 114.834 0.807487 114.951 0.698476C115.073 0.585273 115.224 0.528672 115.404 0.528672ZM120.706 2.99398C121.528 2.99398 122.138 3.17846 122.536 3.54742C122.934 3.91638 123.134 4.50546 123.134 5.31465V10H122.373L122.171 8.98117H122.121C121.928 9.23273 121.727 9.44447 121.517 9.61637C121.308 9.78408 121.064 9.91195 120.788 10C120.515 10.0839 120.18 10.1258 119.781 10.1258C119.362 10.1258 118.989 10.0524 118.662 9.90566C118.339 9.75892 118.083 9.53671 117.895 9.23902C117.71 8.94134 117.618 8.564 117.618 8.10699C117.618 7.41939 117.891 6.89111 118.436 6.52215C118.981 6.15319 119.811 5.95194 120.926 5.9184L122.115 5.86809V5.44672C122.115 4.85135 121.987 4.43418 121.731 4.1952C121.475 3.95621 121.115 3.83672 120.649 3.83672C120.289 3.83672 119.945 3.88913 119.618 3.99395C119.291 4.09876 118.981 4.22245 118.687 4.365L118.366 3.57258C118.677 3.41326 119.033 3.27699 119.436 3.16379C119.838 3.05059 120.262 2.99398 120.706 2.99398ZM122.102 6.60391L121.052 6.64793C120.192 6.68147 119.587 6.82193 119.234 7.0693C118.882 7.31667 118.706 7.66676 118.706 8.11957C118.706 8.51368 118.826 8.80508 119.065 8.99375C119.304 9.18242 119.62 9.27676 120.014 9.27676C120.626 9.27676 121.127 9.10695 121.517 8.76734C121.907 8.42773 122.102 7.91832 122.102 7.2391V6.60391Z" fill="#3F0F20"/>
</svg>
