<svg width="1430" height="103" viewBox="0 0 1430 103" fill="none" xmlns="http://www.w3.org/2000/svg">
<rect width="1430" height="103" fill="#F2F2F2"/>
<g clip-path="url(#clip0_0_565)">
<rect width="1440" height="3715" fill="white"/>
<rect x="-10" width="1440" height="103" fill="#FE9FC1"/>
<path d="M133.446 73.5536C133.446 74.0986 133.31 74.564 133.038 74.9497C132.769 75.3313 132.392 75.6227 131.905 75.8239C131.419 76.0252 130.847 76.1258 130.189 76.1258C129.841 76.1258 129.511 76.109 129.201 76.0755C128.891 76.0419 128.606 75.9937 128.346 75.9308C128.086 75.8679 127.857 75.7904 127.66 75.6981V74.673C127.975 74.803 128.358 74.9246 128.811 75.0378C129.264 75.1468 129.738 75.2013 130.233 75.2013C130.694 75.2013 131.084 75.1405 131.402 75.0189C131.721 74.8931 131.962 74.7149 132.126 74.4843C132.293 74.2495 132.377 73.9686 132.377 73.6416C132.377 73.3271 132.308 73.0651 132.17 72.8555C132.031 72.6416 131.801 72.4488 131.478 72.2769C131.159 72.1008 130.723 71.9142 130.17 71.7171C129.78 71.5788 129.436 71.4279 129.138 71.2643C128.841 71.0966 128.591 70.908 128.39 70.6983C128.189 70.4887 128.036 70.2455 127.931 69.9688C127.83 69.6921 127.78 69.3755 127.78 69.0191C127.78 68.5286 127.904 68.1093 128.151 67.7613C128.402 67.4091 128.748 67.1408 129.189 66.9563C129.633 66.7677 130.142 66.6733 130.717 66.6733C131.207 66.6733 131.66 66.7194 132.075 66.8117C132.495 66.9039 132.878 67.0276 133.226 67.1827L132.893 68.1009C132.562 67.9626 132.209 67.8473 131.836 67.755C131.467 67.6628 131.086 67.6167 130.692 67.6167C130.298 67.6167 129.964 67.6754 129.692 67.7928C129.423 67.906 129.218 68.0674 129.075 68.277C128.933 68.4867 128.862 68.7361 128.862 69.0254C128.862 69.3483 128.929 69.6166 129.063 69.8304C129.201 70.0443 129.419 70.235 129.717 70.4027C130.019 70.5662 130.417 70.7382 130.912 70.9184C131.453 71.1155 131.912 71.3251 132.289 71.5473C132.666 71.7654 132.954 72.0337 133.151 72.3523C133.348 72.6668 133.446 73.0672 133.446 73.5536ZM137.748 68.994C138.57 68.994 139.18 69.1785 139.578 69.5474C139.976 69.9164 140.176 70.5055 140.176 71.3146V76H139.415L139.213 74.9812H139.163C138.97 75.2327 138.769 75.4445 138.559 75.6164C138.35 75.7841 138.106 75.912 137.83 76C137.557 76.0839 137.222 76.1258 136.824 76.1258C136.404 76.1258 136.031 76.0524 135.704 75.9057C135.381 75.7589 135.125 75.5367 134.937 75.239C134.752 74.9413 134.66 74.564 134.66 74.107C134.66 73.4194 134.933 72.8911 135.478 72.5221C136.023 72.1532 136.853 71.9519 137.968 71.9184L139.157 71.8681V71.4467C139.157 70.8514 139.029 70.4342 138.773 70.1952C138.517 69.9562 138.157 69.8367 137.691 69.8367C137.331 69.8367 136.987 69.8891 136.66 69.9939C136.333 70.0988 136.023 70.2224 135.729 70.365L135.408 69.5726C135.719 69.4133 136.075 69.277 136.478 69.1638C136.88 69.0506 137.304 68.994 137.748 68.994ZM139.144 72.6039L138.094 72.6479C137.234 72.6815 136.629 72.8219 136.276 73.0693C135.924 73.3167 135.748 73.6668 135.748 74.1196C135.748 74.5137 135.868 74.8051 136.107 74.9937C136.346 75.1824 136.662 75.2768 137.056 75.2768C137.668 75.2768 138.169 75.107 138.559 74.7673C138.949 74.4277 139.144 73.9183 139.144 73.2391V72.6039ZM145.59 68.9814C146.408 68.9814 147.026 69.1827 147.446 69.5852C147.865 69.9835 148.075 70.6249 148.075 71.5096V76H147.043V71.5788C147.043 71.0044 146.911 70.5746 146.647 70.2895C146.387 70.0044 145.987 69.8619 145.446 69.8619C144.683 69.8619 144.146 70.0778 143.836 70.5096C143.526 70.9415 143.37 71.5683 143.37 72.3901V76H142.326V69.1072H143.169L143.326 70.1009H143.383C143.53 69.8577 143.716 69.6543 143.943 69.4908C144.169 69.3231 144.423 69.1973 144.704 69.1135C144.985 69.0254 145.28 68.9814 145.59 68.9814ZM161.03 71.3146C161.03 72.3502 160.841 73.216 160.464 73.912C160.087 74.6038 159.54 75.1258 158.823 75.478C158.11 75.826 157.244 76 156.225 76H153.729V66.8054H156.502C157.437 66.8054 158.242 66.9773 158.917 67.3211C159.592 67.6607 160.112 68.1659 160.477 68.8368C160.846 69.5034 161.03 70.3294 161.03 71.3146ZM159.904 71.3524C159.904 70.5264 159.766 69.8451 159.489 69.3084C159.217 68.7718 158.814 68.3735 158.282 68.1135C157.754 67.8494 157.106 67.7173 156.338 67.7173H154.798V75.0818H156.099C157.366 75.0818 158.315 74.7694 158.948 74.1447C159.586 73.52 159.904 72.5892 159.904 71.3524ZM163.961 69.1072V76H162.917V69.1072H163.961ZM163.451 66.5287C163.623 66.5287 163.77 66.5853 163.892 66.6985C164.017 66.8075 164.08 66.9794 164.08 67.2142C164.08 67.4448 164.017 67.6167 163.892 67.7299C163.77 67.8431 163.623 67.8997 163.451 67.8997C163.271 67.8997 163.12 67.8431 162.999 67.7299C162.881 67.6167 162.822 67.4448 162.822 67.2142C162.822 66.9794 162.881 66.8075 162.999 66.6985C163.12 66.5853 163.271 66.5287 163.451 66.5287ZM168.829 68.9814C169.416 68.9814 169.919 69.1114 170.338 69.3713C170.757 69.6313 171.078 69.996 171.3 70.4656C171.522 70.931 171.633 71.4761 171.633 72.1008V72.7486H166.873C166.885 73.5577 167.086 74.1741 167.476 74.5975C167.866 75.021 168.416 75.2327 169.124 75.2327C169.56 75.2327 169.946 75.1929 170.281 75.1132C170.617 75.0336 170.965 74.9162 171.325 74.7611V75.6793C170.977 75.8344 170.631 75.9476 170.288 76.0189C169.948 76.0901 169.546 76.1258 169.08 76.1258C168.418 76.1258 167.839 75.9916 167.344 75.7233C166.854 75.4508 166.472 75.0524 166.2 74.5284C165.927 74.0043 165.791 73.3628 165.791 72.6039C165.791 71.8618 165.915 71.2203 166.162 70.6795C166.414 70.1344 166.766 69.7151 167.219 69.4216C167.676 69.1282 168.212 68.9814 168.829 68.9814ZM168.816 69.8367C168.258 69.8367 167.814 70.0191 167.483 70.3839C167.151 70.7486 166.954 71.258 166.892 71.9121H170.539C170.535 71.5012 170.47 71.1407 170.344 70.8304C170.223 70.5159 170.036 70.2728 169.784 70.1009C169.533 69.9248 169.21 69.8367 168.816 69.8367ZM175.331 79.0942C174.426 79.0942 173.728 78.9244 173.237 78.5848C172.747 78.2494 172.501 77.7777 172.501 77.1698C172.501 76.7379 172.638 76.369 172.91 76.0629C173.187 75.7568 173.568 75.5535 174.055 75.4529C173.874 75.369 173.719 75.2432 173.589 75.0755C173.464 74.9078 173.401 74.7149 173.401 74.4969C173.401 74.2454 173.47 74.0252 173.608 73.8366C173.751 73.6437 173.967 73.4592 174.256 73.2831C173.895 73.1364 173.602 72.889 173.376 72.541C173.153 72.1888 173.042 71.78 173.042 71.3146C173.042 70.8199 173.145 70.3985 173.35 70.0505C173.556 69.6984 173.854 69.43 174.243 69.2455C174.633 69.0611 175.105 68.9688 175.658 68.9688C175.78 68.9688 175.902 68.9751 176.023 68.9877C176.149 68.9961 176.269 69.0108 176.382 69.0317C176.495 69.0485 176.593 69.0695 176.677 69.0946H179.042V69.7675L177.772 69.9248C177.897 70.0883 178.002 70.2853 178.086 70.5159C178.17 70.7465 178.212 71.0023 178.212 71.2832C178.212 71.9708 177.979 72.518 177.514 72.9246C177.048 73.3271 176.409 73.5284 175.596 73.5284C175.403 73.5284 175.206 73.5116 175.004 73.4781C174.799 73.5913 174.642 73.7171 174.533 73.8554C174.428 73.9938 174.376 74.1531 174.376 74.3334C174.376 74.4676 174.415 74.5745 174.495 74.6541C174.579 74.7338 174.698 74.7925 174.853 74.8302C175.009 74.8638 175.195 74.8805 175.413 74.8805H176.627C177.377 74.8805 177.952 75.0378 178.35 75.3522C178.753 75.6667 178.954 76.1258 178.954 76.7295C178.954 77.4926 178.644 78.0775 178.023 78.4842C177.403 78.8909 176.505 79.0942 175.331 79.0942ZM175.363 78.2766C175.933 78.2766 176.405 78.2179 176.778 78.1005C177.155 77.9873 177.436 77.8217 177.621 77.6037C177.809 77.3899 177.904 77.1341 177.904 76.8364C177.904 76.5597 177.841 76.3501 177.715 76.2075C177.589 76.0692 177.405 75.9769 177.162 75.9308C176.918 75.8805 176.621 75.8554 176.269 75.8554H175.074C174.763 75.8554 174.493 75.9036 174.262 76C174.032 76.0964 173.854 76.239 173.728 76.4277C173.606 76.6163 173.545 76.8511 173.545 77.132C173.545 77.5052 173.703 77.7882 174.017 77.9811C174.331 78.1781 174.78 78.2766 175.363 78.2766ZM175.633 72.7674C176.132 72.7674 176.508 72.6416 176.759 72.3901C177.011 72.1385 177.136 71.7717 177.136 71.2895C177.136 70.7738 177.009 70.3881 176.753 70.1323C176.497 69.8724 176.12 69.7424 175.621 69.7424C175.143 69.7424 174.774 69.8765 174.514 70.1449C174.258 70.409 174.13 70.7968 174.13 71.3084C174.13 71.7779 174.26 72.1385 174.52 72.3901C174.78 72.6416 175.151 72.7674 175.633 72.7674ZM186.344 72.541C186.344 73.107 186.27 73.6123 186.123 74.0567C185.977 74.5011 185.765 74.8764 185.488 75.1824C185.212 75.4885 184.876 75.7233 184.482 75.8868C184.092 76.0461 183.65 76.1258 183.155 76.1258C182.694 76.1258 182.27 76.0461 181.885 75.8868C181.503 75.7233 181.172 75.4885 180.891 75.1824C180.614 74.8764 180.398 74.5011 180.243 74.0567C180.092 73.6123 180.017 73.107 180.017 72.541C180.017 71.7863 180.145 71.1448 180.4 70.6166C180.656 70.0841 181.021 69.6795 181.495 69.4028C181.973 69.1219 182.541 68.9814 183.199 68.9814C183.828 68.9814 184.377 69.1219 184.847 69.4028C185.321 69.6837 185.687 70.0904 185.947 70.6229C186.212 71.1511 186.344 71.7905 186.344 72.541ZM181.099 72.541C181.099 73.0945 181.172 73.5745 181.319 73.9812C181.465 74.3879 181.692 74.7024 181.998 74.9246C182.304 75.1468 182.698 75.2579 183.18 75.2579C183.658 75.2579 184.05 75.1468 184.356 74.9246C184.667 74.7024 184.895 74.3879 185.042 73.9812C185.189 73.5745 185.262 73.0945 185.262 72.541C185.262 71.9918 185.189 71.518 185.042 71.1197C184.895 70.7172 184.669 70.4069 184.363 70.1889C184.056 69.9709 183.66 69.8619 183.174 69.8619C182.457 69.8619 181.931 70.0988 181.595 70.5725C181.264 71.0463 181.099 71.7025 181.099 72.541ZM189.343 74.5032L189.425 74.6479C189.35 74.9539 189.253 75.281 189.136 75.6289C189.023 75.9769 188.897 76.3249 188.759 76.6729C188.624 77.0251 188.488 77.3542 188.35 77.6603H187.57C187.658 77.3249 187.744 76.9706 187.828 76.5975C187.912 76.2285 187.987 75.8637 188.054 75.5032C188.125 75.1384 188.182 74.8051 188.224 74.5032H189.343ZM198.915 67.6167C198.408 67.6167 197.951 67.7047 197.544 67.8808C197.142 68.0527 196.798 68.3043 196.513 68.6355C196.232 68.9625 196.016 69.3587 195.865 69.8241C195.714 70.2895 195.639 70.8136 195.639 71.3964C195.639 72.1679 195.758 72.8387 195.997 73.4089C196.24 73.9749 196.601 74.4131 197.079 74.7233C197.561 75.0336 198.163 75.1887 198.884 75.1887C199.295 75.1887 199.681 75.1552 200.041 75.0881C200.406 75.0168 200.76 74.9288 201.104 74.8239V75.7547C200.769 75.8805 200.416 75.9727 200.047 76.0314C199.679 76.0943 199.24 76.1258 198.733 76.1258C197.798 76.1258 197.016 75.9329 196.387 75.5472C195.763 75.1573 195.293 74.608 194.978 73.8995C194.668 73.1909 194.513 72.3544 194.513 71.3901C194.513 70.6941 194.61 70.0589 194.802 69.4845C194.999 68.9059 195.285 68.407 195.658 67.9877C196.035 67.5685 196.496 67.2456 197.041 67.0192C197.591 66.7886 198.219 66.6733 198.928 66.6733C199.393 66.6733 199.842 66.7194 200.274 66.8117C200.706 66.9039 201.096 67.036 201.444 67.2079L201.016 68.1135C200.722 67.9793 200.4 67.864 200.047 67.7676C199.699 67.667 199.322 67.6167 198.915 67.6167ZM205.519 68.994C206.341 68.994 206.951 69.1785 207.349 69.5474C207.747 69.9164 207.947 70.5055 207.947 71.3146V76H207.186L206.984 74.9812H206.934C206.741 75.2327 206.54 75.4445 206.33 75.6164C206.121 75.7841 205.877 75.912 205.601 76C205.328 76.0839 204.993 76.1258 204.594 76.1258C204.175 76.1258 203.802 76.0524 203.475 75.9057C203.152 75.7589 202.896 75.5367 202.708 75.239C202.523 74.9413 202.431 74.564 202.431 74.107C202.431 73.4194 202.704 72.8911 203.249 72.5221C203.794 72.1532 204.624 71.9519 205.739 71.9184L206.928 71.8681V71.4467C206.928 70.8514 206.8 70.4342 206.544 70.1952C206.288 69.9562 205.928 69.8367 205.462 69.8367C205.102 69.8367 204.758 69.8891 204.431 69.9939C204.104 70.0988 203.794 70.2224 203.5 70.365L203.179 69.5726C203.49 69.4133 203.846 69.277 204.249 69.1638C204.651 69.0506 205.075 68.994 205.519 68.994ZM206.915 72.6039L205.865 72.6479C205.005 72.6815 204.399 72.8219 204.047 73.0693C203.695 73.3167 203.519 73.6668 203.519 74.1196C203.519 74.5137 203.639 74.8051 203.878 74.9937C204.116 75.1824 204.433 75.2768 204.827 75.2768C205.439 75.2768 205.94 75.107 206.33 74.7673C206.72 74.4277 206.915 73.9183 206.915 73.2391V72.6039ZM211.148 76H210.097V66.2142H211.148V76ZM214.399 69.1072V76H213.355V69.1072H214.399ZM213.89 66.5287C214.062 66.5287 214.208 66.5853 214.33 66.6985C214.456 66.8075 214.519 66.9794 214.519 67.2142C214.519 67.4448 214.456 67.6167 214.33 67.7299C214.208 67.8431 214.062 67.8997 213.89 67.8997C213.709 67.8997 213.558 67.8431 213.437 67.7299C213.319 67.6167 213.261 67.4448 213.261 67.2142C213.261 66.9794 213.319 66.8075 213.437 66.6985C213.558 66.5853 213.709 66.5287 213.89 66.5287ZM219.682 69.9248H217.965V76H216.921V69.9248H215.701V69.4216L216.921 69.0757V68.6166C216.921 68.038 217.007 67.5685 217.179 67.2079C217.351 66.8431 217.6 66.5748 217.927 66.4029C218.254 66.231 218.653 66.145 219.122 66.145C219.386 66.145 219.627 66.1681 219.845 66.2142C220.068 66.2603 220.263 66.3127 220.43 66.3714L220.16 67.1953C220.017 67.1492 219.856 67.1073 219.676 67.0695C219.5 67.0276 219.319 67.0066 219.135 67.0066C218.736 67.0066 218.441 67.1366 218.248 67.3966C218.059 67.6523 217.965 68.0548 217.965 68.6041V69.1072H219.682V69.9248ZM226.895 72.541C226.895 73.107 226.822 73.6123 226.675 74.0567C226.529 74.5011 226.317 74.8764 226.04 75.1824C225.763 75.4885 225.428 75.7233 225.034 75.8868C224.644 76.0461 224.202 76.1258 223.707 76.1258C223.246 76.1258 222.822 76.0461 222.437 75.8868C222.055 75.7233 221.724 75.4885 221.443 75.1824C221.166 74.8764 220.95 74.5011 220.795 74.0567C220.644 73.6123 220.569 73.107 220.569 72.541C220.569 71.7863 220.697 71.1448 220.952 70.6166C221.208 70.0841 221.573 69.6795 222.047 69.4028C222.525 69.1219 223.093 68.9814 223.751 68.9814C224.38 68.9814 224.929 69.1219 225.399 69.4028C225.872 69.6837 226.239 70.0904 226.499 70.6229C226.763 71.1511 226.895 71.7905 226.895 72.541ZM221.65 72.541C221.65 73.0945 221.724 73.5745 221.871 73.9812C222.017 74.3879 222.244 74.7024 222.55 74.9246C222.856 75.1468 223.25 75.2579 223.732 75.2579C224.21 75.2579 224.602 75.1468 224.908 74.9246C225.218 74.7024 225.447 74.3879 225.594 73.9812C225.74 73.5745 225.814 73.0945 225.814 72.541C225.814 71.9918 225.74 71.518 225.594 71.1197C225.447 70.7172 225.22 70.4069 224.914 70.1889C224.608 69.9709 224.212 69.8619 223.726 69.8619C223.009 69.8619 222.483 70.0988 222.147 70.5725C221.816 71.0463 221.65 71.7025 221.65 72.541ZM231.832 68.9814C231.971 68.9814 232.115 68.9898 232.266 69.0066C232.417 69.0191 232.551 69.038 232.669 69.0632L232.537 70.0317C232.424 70.0023 232.298 69.9793 232.159 69.9625C232.021 69.9457 231.891 69.9373 231.769 69.9373C231.493 69.9373 231.231 69.9939 230.983 70.1071C230.74 70.2162 230.526 70.3755 230.342 70.5851C230.157 70.7906 230.013 71.04 229.908 71.3335C229.803 71.6228 229.751 71.9457 229.751 72.302V76H228.7V69.1072H229.568L229.682 70.3776H229.726C229.868 70.1218 230.04 69.8891 230.241 69.6795C230.443 69.4657 230.675 69.2959 230.939 69.1701C231.208 69.0443 231.505 68.9814 231.832 68.9814ZM237.235 68.9814C238.052 68.9814 238.671 69.1827 239.09 69.5852C239.509 69.9835 239.719 70.6249 239.719 71.5096V76H238.687V71.5788C238.687 71.0044 238.555 70.5746 238.291 70.2895C238.031 70.0044 237.631 69.8619 237.09 69.8619C236.327 69.8619 235.79 70.0778 235.48 70.5096C235.17 70.9415 235.015 71.5683 235.015 72.3901V76H233.971V69.1072H234.813L234.971 70.1009H235.027C235.174 69.8577 235.361 69.6543 235.587 69.4908C235.813 69.3231 236.067 69.1973 236.348 69.1135C236.629 69.0254 236.924 68.9814 237.235 68.9814ZM242.914 69.1072V76H241.87V69.1072H242.914ZM242.404 66.5287C242.576 66.5287 242.723 66.5853 242.845 66.6985C242.97 66.8075 243.033 66.9794 243.033 67.2142C243.033 67.4448 242.97 67.6167 242.845 67.7299C242.723 67.8431 242.576 67.8997 242.404 67.8997C242.224 67.8997 242.073 67.8431 241.951 67.7299C241.834 67.6167 241.775 67.4448 241.775 67.2142C241.775 66.9794 241.834 66.8075 241.951 66.6985C242.073 66.5853 242.224 66.5287 242.404 66.5287ZM247.706 68.994C248.528 68.994 249.138 69.1785 249.536 69.5474C249.934 69.9164 250.134 70.5055 250.134 71.3146V76H249.373L249.171 74.9812H249.121C248.928 75.2327 248.727 75.4445 248.517 75.6164C248.308 75.7841 248.064 75.912 247.788 76C247.515 76.0839 247.18 76.1258 246.781 76.1258C246.362 76.1258 245.989 76.0524 245.662 75.9057C245.339 75.7589 245.083 75.5367 244.895 75.239C244.71 74.9413 244.618 74.564 244.618 74.107C244.618 73.4194 244.891 72.8911 245.436 72.5221C245.981 72.1532 246.811 71.9519 247.926 71.9184L249.115 71.8681V71.4467C249.115 70.8514 248.987 70.4342 248.731 70.1952C248.475 69.9562 248.115 69.8367 247.649 69.8367C247.289 69.8367 246.945 69.8891 246.618 69.9939C246.291 70.0988 245.981 70.2224 245.687 70.365L245.366 69.5726C245.677 69.4133 246.033 69.277 246.436 69.1638C246.838 69.0506 247.262 68.994 247.706 68.994ZM249.102 72.6039L248.052 72.6479C247.192 72.6815 246.587 72.8219 246.234 73.0693C245.882 73.3167 245.706 73.6668 245.706 74.1196C245.706 74.5137 245.826 74.8051 246.065 74.9937C246.304 75.1824 246.62 75.2768 247.014 75.2768C247.626 75.2768 248.127 75.107 248.517 74.7673C248.907 74.4277 249.102 73.9183 249.102 73.2391V72.6039Z" fill="#3F0F20"/>
<path d="M139.636 59H126.281V35.0141H139.636V37.475H129.07V45.2352H139.029V47.6633H129.07V56.5391H139.636V59ZM156.173 54.0781C156.173 55.2266 155.884 56.1945 155.304 56.982C154.735 57.7586 153.915 58.3438 152.843 58.7375C151.782 59.1312 150.513 59.3281 149.037 59.3281C147.779 59.3281 146.691 59.2297 145.772 59.0328C144.853 58.8359 144.049 58.557 143.36 58.1961V55.6859C144.093 56.0469 144.968 56.375 145.985 56.6703C147.002 56.9656 148.041 57.1133 149.102 57.1133C150.655 57.1133 151.782 56.8617 152.482 56.3586C153.182 55.8555 153.532 55.1719 153.532 54.3078C153.532 53.8156 153.39 53.3836 153.105 53.0117C152.832 52.6289 152.367 52.2625 151.711 51.9125C151.055 51.5516 150.147 51.1578 148.987 50.7313C147.839 50.2938 146.844 49.8617 146.002 49.4352C145.17 48.9977 144.525 48.4672 144.066 47.8438C143.617 47.2203 143.393 46.4109 143.393 45.4156C143.393 43.8953 144.005 42.7305 145.23 41.9211C146.466 41.1008 148.085 40.6906 150.087 40.6906C151.17 40.6906 152.181 40.8 153.122 41.0188C154.073 41.2266 154.959 41.5109 155.78 41.8719L154.861 44.0539C154.117 43.7367 153.324 43.4688 152.482 43.25C151.64 43.0313 150.781 42.9219 149.906 42.9219C148.648 42.9219 147.68 43.1297 147.002 43.5453C146.335 43.9609 146.002 44.5297 146.002 45.2516C146.002 45.8094 146.155 46.2688 146.461 46.6297C146.778 46.9906 147.281 47.3297 147.97 47.6469C148.659 47.9641 149.567 48.3359 150.694 48.7625C151.82 49.1781 152.794 49.6102 153.614 50.0586C154.434 50.4961 155.063 51.032 155.501 51.6664C155.949 52.2898 156.173 53.0938 156.173 54.0781ZM166.362 57.0969C166.81 57.0969 167.27 57.0586 167.74 56.982C168.21 56.9055 168.593 56.8125 168.888 56.7031V58.8195C168.571 58.9617 168.128 59.082 167.559 59.1805C167.002 59.2789 166.455 59.3281 165.919 59.3281C164.967 59.3281 164.103 59.1641 163.327 58.8359C162.55 58.4969 161.927 57.9281 161.456 57.1297C160.997 56.3313 160.767 55.2266 160.767 53.8156V43.1516H158.208V41.8227L160.784 40.7563L161.866 36.8516H163.507V41.0188H168.773V43.1516H163.507V53.7336C163.507 54.8602 163.764 55.7023 164.278 56.2602C164.803 56.818 165.498 57.0969 166.362 57.0969ZM179.454 40.6906C180.985 40.6906 182.298 41.0297 183.391 41.7078C184.485 42.3859 185.322 43.3375 185.902 44.5625C186.481 45.7766 186.771 47.1984 186.771 48.8281V50.518H174.352C174.384 52.6289 174.909 54.2367 175.927 55.3414C176.944 56.4461 178.377 56.9984 180.225 56.9984C181.362 56.9984 182.369 56.8945 183.244 56.6867C184.119 56.4789 185.027 56.1727 185.967 55.768V58.1633C185.059 58.568 184.157 58.8633 183.26 59.0492C182.374 59.2352 181.324 59.3281 180.11 59.3281C178.382 59.3281 176.873 58.9781 175.582 58.2781C174.302 57.5672 173.307 56.5281 172.596 55.1609C171.885 53.7938 171.53 52.1203 171.53 50.1406C171.53 48.2047 171.852 46.5313 172.498 45.1203C173.154 43.6984 174.073 42.6047 175.254 41.8391C176.446 41.0734 177.846 40.6906 179.454 40.6906ZM179.421 42.9219C177.966 42.9219 176.807 43.3977 175.943 44.3492C175.079 45.3008 174.565 46.6297 174.401 48.3359H183.916C183.905 47.2641 183.736 46.3234 183.408 45.5141C183.091 44.6938 182.604 44.0594 181.948 43.6109C181.291 43.1516 180.449 42.9219 179.421 42.9219ZM183.966 33.2586V33.5867C183.747 33.9039 183.446 34.2867 183.063 34.7352C182.691 35.1727 182.276 35.6375 181.816 36.1297C181.357 36.6109 180.892 37.0703 180.422 37.5078C179.962 37.9453 179.536 38.3227 179.142 38.6398H177.321V38.2461C177.671 37.8305 178.054 37.3328 178.47 36.7531C178.885 36.1625 179.29 35.5609 179.684 34.9484C180.077 34.325 180.405 33.7617 180.668 33.2586H183.966ZM198.321 40.6906C199.852 40.6906 201.165 41.0297 202.259 41.7078C203.352 42.3859 204.189 43.3375 204.769 44.5625C205.348 45.7766 205.638 47.1984 205.638 48.8281V50.518H193.219C193.252 52.6289 193.777 54.2367 194.794 55.3414C195.811 56.4461 197.244 56.9984 199.092 56.9984C200.23 56.9984 201.236 56.8945 202.111 56.6867C202.986 56.4789 203.894 56.1727 204.834 55.768V58.1633C203.927 58.568 203.024 58.8633 202.127 59.0492C201.241 59.2352 200.191 59.3281 198.977 59.3281C197.249 59.3281 195.74 58.9781 194.449 58.2781C193.17 57.5672 192.174 56.5281 191.463 55.1609C190.752 53.7938 190.397 52.1203 190.397 50.1406C190.397 48.2047 190.72 46.5313 191.365 45.1203C192.021 43.6984 192.94 42.6047 194.121 41.8391C195.313 41.0734 196.713 40.6906 198.321 40.6906ZM198.288 42.9219C196.834 42.9219 195.674 43.3977 194.81 44.3492C193.946 45.3008 193.432 46.6297 193.268 48.3359H202.784C202.773 47.2641 202.603 46.3234 202.275 45.5141C201.958 44.6938 201.471 44.0594 200.815 43.6109C200.159 43.1516 199.316 42.9219 198.288 42.9219ZM219.403 59V35.0141H222.192V56.5063H232.84V59H219.403ZM243.274 40.7234C245.418 40.7234 247.009 41.2047 248.048 42.1672C249.087 43.1297 249.607 44.6664 249.607 46.7773V59H247.622L247.097 56.3422H246.966C246.462 56.9984 245.937 57.5508 245.391 57.9992C244.844 58.4367 244.209 58.7703 243.487 59C242.777 59.2187 241.902 59.3281 240.862 59.3281C239.769 59.3281 238.795 59.1367 237.942 58.7539C237.1 58.3711 236.433 57.7914 235.941 57.0148C235.459 56.2383 235.219 55.2539 235.219 54.0617C235.219 52.268 235.93 50.8898 237.352 49.9273C238.773 48.9648 240.939 48.4398 243.848 48.3523L246.949 48.2211V47.1219C246.949 45.5688 246.616 44.4805 245.948 43.857C245.281 43.2336 244.341 42.9219 243.127 42.9219C242.186 42.9219 241.289 43.0586 240.436 43.332C239.583 43.6055 238.773 43.9281 238.008 44.3L237.171 42.2328C237.98 41.8172 238.91 41.4617 239.96 41.1664C241.01 40.8711 242.115 40.7234 243.274 40.7234ZM246.916 50.1406L244.177 50.2555C241.934 50.343 240.354 50.7094 239.435 51.3547C238.516 52 238.057 52.9133 238.057 54.0945C238.057 55.1227 238.369 55.8828 238.992 56.375C239.616 56.8672 240.441 57.1133 241.47 57.1133C243.066 57.1133 244.373 56.6703 245.391 55.7844C246.408 54.8984 246.916 53.5695 246.916 51.7977V50.1406ZM270.066 41.0188V59H267.834L267.441 56.4734H267.293C266.921 57.0969 266.44 57.6219 265.849 58.0484C265.259 58.475 264.591 58.7922 263.848 59C263.115 59.2187 262.333 59.3281 261.502 59.3281C260.08 59.3281 258.887 59.0984 257.925 58.6391C256.962 58.1797 256.235 57.4688 255.743 56.5063C255.262 55.5438 255.021 54.3078 255.021 52.7984V41.0188H257.777V52.6016C257.777 54.1 258.116 55.2211 258.795 55.9648C259.473 56.6977 260.506 57.0641 261.895 57.0641C263.23 57.0641 264.291 56.8125 265.078 56.3094C265.877 55.8063 266.451 55.068 266.801 54.0945C267.151 53.1102 267.326 51.907 267.326 50.4852V41.0188H270.066ZM282.223 59.3281C279.948 59.3281 278.143 58.5516 276.809 56.9984C275.485 55.4453 274.823 53.1375 274.823 50.075C274.823 46.9797 275.502 44.6445 276.858 43.0695C278.214 41.4836 280.019 40.6906 282.272 40.6906C283.223 40.6906 284.055 40.8164 284.766 41.068C285.477 41.3195 286.089 41.6586 286.603 42.0852C287.117 42.5008 287.549 42.9766 287.899 43.5125H288.096C288.052 43.1734 288.009 42.7086 287.965 42.118C287.921 41.5273 287.899 41.0461 287.899 40.6742V33.4719H290.623V59H288.424L288.014 56.4406H287.899C287.56 56.9766 287.128 57.4633 286.603 57.9008C286.089 58.3383 285.471 58.6883 284.749 58.9508C284.038 59.2023 283.196 59.3281 282.223 59.3281ZM282.649 57.0641C284.574 57.0641 285.936 56.5172 286.734 55.4234C287.533 54.3297 287.932 52.7055 287.932 50.5508V50.0586C287.932 47.7727 287.549 46.0172 286.784 44.7922C286.029 43.5672 284.651 42.9547 282.649 42.9547C280.976 42.9547 279.723 43.6 278.892 44.8906C278.061 46.1703 277.645 47.9203 277.645 50.1406C277.645 52.35 278.055 54.0563 278.876 55.2594C279.707 56.4625 280.965 57.0641 282.649 57.0641ZM303.321 40.6906C304.852 40.6906 306.165 41.0297 307.259 41.7078C308.352 42.3859 309.189 43.3375 309.769 44.5625C310.348 45.7766 310.638 47.1984 310.638 48.8281V50.518H298.219C298.252 52.6289 298.777 54.2367 299.794 55.3414C300.811 56.4461 302.244 56.9984 304.092 56.9984C305.23 56.9984 306.236 56.8945 307.111 56.6867C307.986 56.4789 308.894 56.1727 309.834 55.768V58.1633C308.927 58.568 308.024 58.8633 307.127 59.0492C306.241 59.2352 305.191 59.3281 303.977 59.3281C302.249 59.3281 300.74 58.9781 299.449 58.2781C298.17 57.5672 297.174 56.5281 296.463 55.1609C295.752 53.7938 295.397 52.1203 295.397 50.1406C295.397 48.2047 295.72 46.5313 296.365 45.1203C297.021 43.6984 297.94 42.6047 299.121 41.8391C300.313 41.0734 301.713 40.6906 303.321 40.6906ZM303.288 42.9219C301.834 42.9219 300.674 43.3977 299.81 44.3492C298.946 45.3008 298.432 46.6297 298.268 48.3359H307.784C307.773 47.2641 307.603 46.3234 307.275 45.5141C306.958 44.6938 306.471 44.0594 305.815 43.6109C305.159 43.1516 304.316 42.9219 303.288 42.9219ZM323.435 40.6906C323.796 40.6906 324.173 40.7125 324.567 40.7563C324.961 40.7891 325.311 40.8383 325.617 40.9039L325.273 43.4305C324.977 43.3539 324.649 43.2938 324.288 43.25C323.927 43.2063 323.588 43.1844 323.271 43.1844C322.549 43.1844 321.866 43.332 321.22 43.6273C320.586 43.9117 320.028 44.3273 319.547 44.8742C319.066 45.4102 318.688 46.0609 318.415 46.8266C318.141 47.5813 318.005 48.4234 318.005 49.3531V59H315.265V41.0188H317.529L317.824 44.3328H317.939C318.311 43.6656 318.759 43.0586 319.284 42.5117C319.809 41.9539 320.416 41.5109 321.105 41.1828C321.805 40.8547 322.582 40.6906 323.435 40.6906Z" fill="white"/>
</g>
<path d="M75.2919 28.4975L68.3344 33.8325L70.8369 42.2475L63.6044 37.27L56.3719 42.2475L58.8744 33.8325L51.9169 28.4975L60.6894 28.25L63.6044 20L66.5194 28.25L75.2919 28.4975ZM84.9169 47.5L80.4069 50.9375L82.0294 56.3825L77.3544 53.165L72.6794 56.3825L74.3019 50.9375L69.7919 47.5L75.4569 47.3625L77.3544 42L79.2519 47.3625L84.9169 47.5ZM78.6469 61.1125C80.9294 60.8925 83.3769 64.1375 81.9194 66.2C81.0394 67.4375 80.1044 68.5925 78.9494 69.6925C68.1969 80.5 50.7894 80.5 40.0644 69.6925C29.3119 58.9675 29.3119 41.5325 40.0644 30.8075C41.1644 29.7075 42.3194 28.7175 43.5569 27.8375C45.6194 26.38 48.8644 28.8275 48.6444 31.11C47.9019 38.975 50.5419 47.1425 56.5919 53.165C62.6144 59.215 70.7544 61.855 78.6469 61.1125ZM74.1369 66.6675C66.3544 66.2275 58.6544 63.01 52.6869 57.125C46.7194 51.1025 43.5294 43.375 43.0894 35.62C35.3619 44.255 35.6644 57.51 43.9419 65.815C52.2469 74.0925 65.5019 74.395 74.1369 66.6675Z" fill="white"/>
<defs>
<clipPath id="clip0_0_565">
<rect width="1440" height="3715" fill="white"/>
</clipPath>
</defs>
</svg>
